<svg xmlns="http://www.w3.org/2000/svg" xmlns:xlink="http://www.w3.org/1999/xlink" id="Layer_1" x="0" y="0" version="1.1" viewBox="0 0 683.3 254" xml:space="preserve" style="enable-background:new 0 0 683.3 254"><style type="text/css">.st0{fill:none;stroke:#777;stroke-width:.5;stroke-miterlimit:10}.st1{fill:#777}.st2{font-family:&apos;ArialMT&apos;,&apos;Arial&apos;,&apos;Helvetica&apos;,&apos;sans-serif&apos;}.st3{font-size:15px}.st4{font-size:22px}.st5{font-size:24px}.st6{font-size:12px}text{user-select:none}</style><g id="keys"><path id="tilda" d="M58.4,53.7c0,1.7-1.4,3-3,3H18.9c-1.6,0-3-1.3-3-3V18.3c0-1.7,1.3-3,3-3h36.5c1.6,0,3,1.3,3,3V53.7z" class="st0"/><path id="key-1" d="M103.4,53.7c0,1.7-1.3,3-3,3H63.9c-1.7,0-3-1.3-3-3V18.3c0-1.6,1.3-3,3-3h36.5c1.7,0,3,1.4,3,3V53.7z" class="st0"/><path id="q" d="M126.7,97.6c0,1.6-1.3,3-3,3H87.2c-1.7,0-3-1.4-3-3V62.3c0-1.6,1.3-3,3-3h36.5c1.7,0,3,1.4,3,3V97.6z" class="st0"/><path id="a" d="M137.4,141.5c0,1.6-1.4,3-3,3H97.9c-1.7,0-3-1.4-3-3v-35.4c0-1.7,1.3-3,3-3h36.5c1.6,0,3,1.3,3,3V141.5z" class="st0"/><path id="z" d="M160.8,185.4c0,1.7-1.4,3-3,3h-36.5c-1.7,0-3-1.3-3-3v-35.3c0-1.7,1.3-3,3-3h36.5c1.6,0,3,1.3,3,3V185.4z" class="st0"/><path id="x" d="M205.8,185.4c0,1.7-1.4,3-3,3h-36.5c-1.7,0-3-1.3-3-3v-35.3c0-1.6,1.3-3,3-3h36.5c1.6,0,3,1.4,3,3V185.4z" class="st0"/><path id="c" d="M250.8,185.4c0,1.7-1.4,3-3,3h-36.5c-1.7,0-3-1.3-3-3v-35.3c0-1.6,1.3-3,3-3h36.5c1.6,0,3,1.4,3,3V185.4z" class="st0"/><path id="v" d="M295.8,185.4c0,1.7-1.4,3-3,3h-36.5c-1.7,0-3-1.3-3-3v-35.3c0-1.6,1.3-3,3-3h36.5c1.6,0,3,1.4,3,3V185.4z" class="st0"/><path id="b" d="M340.8,185.4c0,1.7-1.4,3-3,3h-36.6c-1.6,0-3-1.3-3-3v-35.3c0-1.6,1.4-3,3-3h36.6c1.6,0,3,1.4,3,3V185.4z" class="st0"/><path id="n" d="M385.8,185.4c0,1.7-1.4,3-3,3h-36.5c-1.6,0-3-1.3-3-3v-35.3c0-1.6,1.4-3,3-3h36.5c1.6,0,3,1.4,3,3V185.4z" class="st0"/><path id="m" d="M430.8,185.4c0,1.7-1.4,3-3,3h-36.5c-1.6,0-3-1.3-3-3v-35.3c0-1.6,1.4-3,3-3h36.5c1.6,0,3,1.4,3,3V185.4z" class="st0"/><path id="comma" d="M475.8,185.4c0,1.7-1.4,3-3,3h-36.5c-1.6,0-3-1.3-3-3v-35.3c0-1.6,1.4-3,3-3h36.5c1.6,0,3,1.4,3,3V185.4z" class="st0"/><path id="dot" d="M520.8,185.4c0,1.7-1.3,3-3,3h-36.5c-1.6,0-3-1.3-3-3v-35.3c0-1.6,1.4-3,3-3h36.5c1.7,0,3,1.4,3,3V185.4z" class="st0"/><path id="slash" d="M565.8,185.4c0,1.7-1.3,3-3,3h-36.5c-1.6,0-3-1.3-3-3v-35.3c0-1.6,1.4-3,3-3h36.5c1.7,0,3,1.4,3,3V185.4z" class="st0"/><path id="s" d="M182.4,141.5c0,1.6-1.4,3-3,3h-36.5c-1.6,0-3-1.4-3-3v-35.4c0-1.7,1.4-3,3-3h36.5c1.6,0,3,1.3,3,3V141.5z" class="st0"/><path id="d" d="M227.4,141.5c0,1.6-1.4,3-3,3h-36.5c-1.6,0-3-1.4-3-3v-35.4c0-1.7,1.4-3,3-3h36.5c1.6,0,3,1.3,3,3V141.5z" class="st0"/><path id="f" d="M272.4,141.5c0,1.6-1.4,3-3,3h-36.5c-1.6,0-3-1.4-3-3v-35.4c0-1.7,1.4-3,3-3h36.5c1.6,0,3,1.3,3,3V141.5z" class="st0"/><path id="g" d="M317.4,141.5c0,1.6-1.4,3-3,3h-36.5c-1.6,0-3-1.4-3-3v-35.4c0-1.7,1.4-3,3-3h36.5c1.6,0,3,1.3,3,3V141.5z" class="st0"/><path id="h" d="M362.4,141.5c0,1.6-1.4,3-3,3h-36.5c-1.6,0-3-1.4-3-3v-35.4c0-1.7,1.4-3,3-3h36.5c1.6,0,3,1.3,3,3V141.5z" class="st0"/><path id="j" d="M407.4,141.5c0,1.6-1.4,3-3,3h-36.5c-1.6,0-3-1.4-3-3v-35.4c0-1.7,1.4-3,3-3h36.5c1.6,0,3,1.3,3,3V141.5z" class="st0"/><path id="k" d="M452.4,141.5c0,1.6-1.4,3-3,3h-36.5c-1.6,0-3-1.4-3-3v-35.4c0-1.7,1.4-3,3-3h36.5c1.6,0,3,1.3,3,3V141.5z" class="st0"/><path id="l" d="M497.4,141.5c0,1.6-1.4,3-3,3h-36.5c-1.6,0-3-1.4-3-3v-35.4c0-1.7,1.4-3,3-3h36.5c1.6,0,3,1.3,3,3V141.5z" class="st0"/><path id="semicolon" d="M542.4,141.5c0,1.6-1.4,3-3,3h-36.5c-1.6,0-3-1.4-3-3v-35.4c0-1.7,1.4-3,3-3h36.5c1.6,0,3,1.3,3,3V141.5z" class="st0"/><path id="quote" d="M587.4,141.5c0,1.6-1.4,3-3,3h-36.5c-1.7,0-3-1.4-3-3v-35.4c0-1.7,1.3-3,3-3h36.5c1.6,0,3,1.3,3,3V141.5z" class="st0"/><path id="w" d="M171.7,97.6c0,1.6-1.3,3-3,3h-36.5c-1.6,0-3-1.4-3-3V62.3c0-1.6,1.4-3,3-3h36.5c1.7,0,3,1.4,3,3V97.6z" class="st0"/><path id="e" d="M216.7,97.6c0,1.6-1.3,3-3,3h-36.5c-1.6,0-3-1.4-3-3V62.3c0-1.7,1.4-3,3-3h36.5c1.7,0,3,1.3,3,3V97.6z" class="st0"/><path id="r" d="M261.7,97.6c0,1.6-1.4,3-3,3h-36.5c-1.6,0-3-1.4-3-3V62.3c0-1.6,1.4-3,3-3h36.5c1.6,0,3,1.4,3,3V97.6z" class="st0"/><path id="t" d="M306.7,97.6c0,1.6-1.4,3-3,3h-36.5c-1.6,0-3-1.4-3-3V62.3c0-1.6,1.4-3,3-3h36.5c1.6,0,3,1.4,3,3V97.6z" class="st0"/><path id="y" d="M351.7,97.6c0,1.6-1.4,3-3,3h-36.5c-1.6,0-3-1.4-3-3V62.3c0-1.6,1.4-3,3-3h36.5c1.6,0,3,1.4,3,3V97.6z" class="st0"/><path id="u" d="M396.7,97.6c0,1.6-1.4,3-3,3h-36.5c-1.6,0-3-1.4-3-3V62.3c0-1.6,1.4-3,3-3h36.5c1.6,0,3,1.4,3,3V97.6z" class="st0"/><path id="i" d="M441.7,97.6c0,1.6-1.4,3-3,3h-36.5c-1.6,0-3-1.4-3-3V62.3c0-1.6,1.4-3,3-3h36.5c1.6,0,3,1.4,3,3V97.6z" class="st0"/><path id="o" d="M486.7,97.6c0,1.6-1.4,3-3,3h-36.5c-1.6,0-3-1.4-3-3V62.3c0-1.6,1.4-3,3-3h36.5c1.6,0,3,1.4,3,3V97.6z" class="st0"/><path id="p" d="M531.7,97.6c0,1.6-1.3,3-3,3h-36.5c-1.6,0-3-1.4-3-3V62.3c0-1.6,1.4-3,3-3h36.5c1.7,0,3,1.4,3,3V97.6z" class="st0"/><path id="open-bracket" d="M576.7,97.6c0,1.6-1.3,3-3,3h-36.5c-1.6,0-3-1.4-3-3V62.3c0-1.6,1.4-3,3-3h36.5c1.7,0,3,1.4,3,3V97.6z" class="st0"/><path id="close-bracket" d="M621.7,97.6c0,1.6-1.3,3-3,3h-36.5c-1.6,0-3-1.4-3-3V62.3c0-1.6,1.4-3,3-3h36.5c1.7,0,3,1.4,3,3V97.6z" class="st0"/><path id="backslash" d="M668.8,97.6c0,1.6-1.3,3-3,3h-38.6c-1.6,0-3-1.4-3-3V62.4c0-1.6,1.4-3,3-3h38.6c1.7,0,3,1.4,3,3V97.6z" class="st0"/><path id="key-2" d="M148.4,53.7c0,1.7-1.4,3-3,3h-36.5c-1.6,0-3-1.3-3-3V18.3c0-1.6,1.4-3,3-3h36.5c1.6,0,3,1.4,3,3V53.7z" class="st0"/><path id="key-3" d="M193.4,53.7c0,1.7-1.4,3-3,3h-36.5c-1.7,0-3-1.3-3-3V18.3c0-1.6,1.3-3,3-3h36.5c1.6,0,3,1.4,3,3V53.7z" class="st0"/><path id="key-4" d="M238.4,53.7c0,1.7-1.4,3-3,3H199c-1.7,0-3-1.3-3-3V18.3c0-1.7,1.3-3,3-3h36.5c1.6,0,3,1.3,3,3V53.7z" class="st0"/><path id="key-5" d="M283.4,53.7c0,1.7-1.3,3-3,3h-36.5c-1.7,0-3-1.3-3-3V18.3c0-1.7,1.3-3,3-3h36.5c1.7,0,3,1.3,3,3V53.7z" class="st0"/><path id="key-6" d="M328.4,53.7c0,1.7-1.3,3-3,3h-36.5c-1.6,0-3-1.3-3-3V18.3c0-1.7,1.4-3,3-3h36.5c1.7,0,3,1.3,3,3V53.7z" class="st0"/><path id="key-7" d="M373.4,53.7c0,1.7-1.3,3-3,3h-36.5c-1.6,0-3-1.3-3-3V18.3c0-1.6,1.4-3,3-3h36.5c1.7,0,3,1.4,3,3V53.7z" class="st0"/><path id="key-8" d="M418.4,53.7c0,1.7-1.3,3-3,3h-36.5c-1.6,0-3-1.3-3-3V18.3c0-1.6,1.4-3,3-3h36.5c1.7,0,3,1.4,3,3V53.7z" class="st0"/><path id="key-9" d="M463.4,53.7c0,1.7-1.3,3-3,3h-36.5c-1.6,0-3-1.3-3-3V18.3c0-1.6,1.4-3,3-3h36.5c1.7,0,3,1.4,3,3V53.7z" class="st0"/><path id="key-0" d="M508.4,53.7c0,1.7-1.3,3-3,3h-36.5c-1.6,0-3-1.3-3-3V18.3c0-1.6,1.4-3,3-3h36.5c1.7,0,3,1.4,3,3V53.7z" class="st0"/><path id="minus" d="M553.4,53.7c0,1.7-1.4,3-3,3h-36.5c-1.7,0-3-1.3-3-3V18.3c0-1.7,1.4-3,3-3h36.5c1.6,0,3,1.3,3,3V53.7z" class="st0"/><path id="equal" d="M598.4,53.7c0,1.7-1.4,3-3,3h-36.5c-1.7,0-3-1.3-3-3V18.3c0-1.6,1.3-3,3-3h36.5c1.6,0,3,1.4,3,3V53.7z" class="st0"/><path id="backspace" d="M668.8,53.7c0,1.7-1.3,3-3,3h-61.9c-1.7,0-3-1.3-3-3V18.3c0-1.6,1.3-3,3-3h61.9c1.7,0,3,1.4,3,3V53.7z" class="st0"/><path id="tab" d="M81.7,97.6c0,1.6-1.3,3-3,3H18.9c-1.6,0-3-1.4-3-3V62.3c0-1.6,1.3-3,3-3h59.8c1.7,0,3,1.4,3,3V97.6z" class="st0"/><path id="capslock" d="M92.4,141.5c0,1.6-1.3,3-3,3H18.9c-1.6,0-3-1.4-3-3v-35.4c0-1.7,1.3-3,3-3h70.4c1.7,0,3,1.3,3,3V141.5z" class="st0"/><path id="enter" d="M668.8,141.5c0,1.6-1.3,3-3,3h-72.9c-1.7,0-3-1.4-3-3v-35.4c0-1.7,1.3-3,3-3h72.9c1.7,0,3,1.3,3,3V141.5z" class="st0"/><path id="shift-left" d="M115.8,185.4c0,1.7-1.3,3-3,3H18.9c-1.6,0-3-1.3-3-3v-35.3c0-1.6,1.3-3,3-3h93.8c1.7,0,3,1.4,3,3V185.4z" class="st0"/><path id="control" d="M105,236c0,1.6-1.3,3-3,3H18.9c-1.6,0-3-1.4-3-3v-42c0-1.7,1.3-3,3-3H102c1.7,0,3,1.3,3,3V236z" class="st0"/><path id="option-left" d="M182.4,236c0,1.7-1.4,3-3,3h-68.8c-1.7,0-3-1.3-3-3v-42c0-1.7,1.3-3,3-3h68.8c1.6,0,3,1.3,3,3V236z" class="st0"/><path id="option-right" d="M531.8,191c1.7,0,3,1.4,3,3v42c0,1.7-1.3,3-3,3h-62.9c-1.6,0-3-1.3-3-3v-42c0-1.6,1.4-3,3-3H531.8z" class="st0"/><path d="M668.8,236.1c0,1.7-1.3,3-3,3H540.3c-1.6,0-3-1.3-3-3v-42c0-1.6,1.4-3,3-3h125.5c1.7,0,3,1.4,3,3V236.1z" class="st0"/><path id="space" d="M460.4,191c1.6,0,3,1.4,3,3v42c0,1.7-1.4,3-3,3H187.5c-1.6,0-3-1.3-3-3v-42c0-1.6,1.4-3,3-3H460.4z" class="st0"/><path id="shift-right" d="M668.8,185.4c0,1.7-1.3,3-3,3h-94.5c-1.6,0-3-1.3-3-3v-35.3c0-1.6,1.4-3,3-3h94.5c1.7,0,3,1.4,3,3V185.4z" class="st0"/></g><g id="letters"><text class="st1 st2 st3" transform="matrix(1 0 0 1 33.4903 33.804)">~</text><text class="st1 st2 st3" transform="matrix(1 0 0 1 35.8009 52.6643)">`</text><text class="st1 st2 st3" transform="matrix(1 0 0 1 78.626 50.4071)">1</text><text class="st1 st2 st3" transform="matrix(1 0 0 1 123.299 51.1765)">2</text><text class="st1 st2 st3" transform="matrix(1 0 0 1 169.6841 51.404)">3</text><text class="st1 st2 st3" transform="matrix(1 0 0 1 213.0758 51.404)">4</text><text class="st1 st2 st3" transform="matrix(1 0 0 1 258.0724 51.404)">5</text><text class="st1 st2 st3" transform="matrix(1 0 0 1 303.2822 51.0891)">6</text><text class="st1 st2 st3" transform="matrix(1 0 0 1 349.5064 51.0891)">7</text><text class="st1 st2 st3" transform="matrix(1 0 0 1 393.281 51.2157)">8</text><text class="st1 st2 st3" transform="matrix(1 0 0 1 438.5742 51.2157)">9</text><text class="st1 st2 st3" transform="matrix(1 0 0 1 483.4907 51.2157)">0</text><text class="st1 st2 st3" transform="matrix(1 0 0 1 530.4011 50.4071)">-</text><text class="st1 st2 st3" transform="matrix(1 0 0 1 573.5195 51.2157)">=</text><text class="st1 st2 st3" transform="matrix(1 0 0 1 80.5513 31.7605)">!</text><text class="st1 st2 st3" transform="matrix(1 0 0 1 119.8565 30.45)">@</text><text class="st1 st2 st3" transform="matrix(1 0 0 1 169.6841 31.76)">#</text><text class="st1 st2 st3" transform="matrix(1 0 0 1 213.0758 31.2171)">$</text><text class="st1 st2 st3" transform="matrix(1 0 0 1 255.5748 30.8318)">%</text><text class="st1 st2 st3" transform="matrix(1 0 0 1 303.9556 32.4427)">^</text><text class="st1 st2 st3" transform="matrix(1 0 0 1 348.2554 31.76)">&amp;</text><text class="st1 st2 st3" transform="matrix(1 0 0 1 394.5334 32.8236)">*</text><text class="st1 st2 st3" transform="matrix(1 0 0 1 440.3076 30.6435)">(</text><text class="st1 st2 st3" transform="matrix(1 0 0 1 485.1645 30.6435)">)</text><text class="st1 st2 st3" transform="matrix(1 0 0 1 528.7588 25.5423)">_</text><text class="st1 st2 st3" transform="matrix(1 0 0 1 573.5195 32.4422)">+</text><text class="st1 st2 st4" transform="matrix(1 0 0 1 108.1346 133.3303)">A</text><text class="st1 st2 st4" transform="matrix(1 0 0 1 312.0098 176.7458)">B</text><text class="st1 st2 st4" transform="matrix(1 0 0 1 198.5241 133.3303)">D</text><text class="st1 st2 st4" transform="matrix(1 0 0 1 220.5416 176.7458)">C</text><text class="st1 st2 st4" transform="matrix(1 0 0 1 188.5943 88.4744)">E</text><text class="st1 st2 st4" transform="matrix(1 0 0 1 245.1121 133.3303)">F</text><text class="st1 st2 st4" transform="matrix(1 0 0 1 287.4753 133.3303)">G</text><text class="st1 st2 st4" transform="matrix(1 0 0 1 333.5886 133.3303)">H</text><text class="st1 st2 st4" transform="matrix(1 0 0 1 416.5557 88.4743)">I</text><text class="st1 st2 st4" transform="matrix(1 0 0 1 380.2692 133.3303)">J</text><text class="st1 st2 st4" transform="matrix(1 0 0 1 425.0182 133.3303)">K</text><text class="st1 st2 st4" transform="matrix(1 0 0 1 471.8706 133.3303)">L</text><text class="st1 st2 st4" transform="matrix(1 0 0 1 399.6816 176.7458)">M</text><text class="st1 st2 st4" transform="matrix(1 0 0 1 356.4863 176.7458)">N</text><text class="st1 st2 st4" transform="matrix(1 0 0 1 456.9639 88.4743)">O</text><text class="st1 st2 st4" transform="matrix(1 0 0 1 503.9335 88.4743)">P</text><text class="st1 st2 st4" transform="matrix(1 0 0 1 95.9088 88.4743)">Q</text><text class="st1 st2 st4" transform="matrix(1 0 0 1 231.9933 88.4743)">R</text><text class="st1 st2 st4" transform="matrix(1 0 0 1 153.0135 133.3303)">S</text><text class="st1 st2 st4" transform="matrix(1 0 0 1 278.608 88.4744)">T</text><text class="st1 st2 st4" transform="matrix(1 0 0 1 368.1386 88.4743)">U</text><text class="st1 st2 st4" transform="matrix(1 0 0 1 267.3973 176.7458)">V</text><text class="st1 st2 st4" transform="matrix(1 0 0 1 140.3644 88.4744)">W</text><text class="st1 st2 st4" transform="matrix(1 0 0 1 177.2339 176.7458)">X</text><text class="st1 st2 st4" transform="matrix(1 0 0 1 323.5138 88.4744)">Y</text><text class="st1 st2 st4" transform="matrix(1 0 0 1 132.7896 176.7458)">Z</text><text class="st1 st2 st3" transform="matrix(1 0 0 1 519.074 136.7127)">;</text><text class="st1 st2 st3" transform="matrix(1 0 0 1 519.074 119.3763)">:</text><text class="st1 st2 st5" transform="matrix(1 0 0 1 451.3285 180.0409)">,</text><text class="st1 st2 st3" transform="matrix(1 0 0 1 450.2827 164.3396)">&lt;</text><text class="st1 st2 st5" transform="matrix(1 0 0 1 495.9731 181.0409)">.</text><text class="st1 st2 st3" transform="matrix(1 0 0 1 494.9274 164.3396)">&gt;</text><text class="st1 st2 st3" transform="matrix(1 0 0 1 543.4077 181.0408)">/</text><text class="st1 st2 st3" transform="matrix(1 0 0 1 541.3276 163.2498)">?</text><text class="st1 st2 st3" transform="matrix(1 0 0 1 565.621 138.7127)">&apos;</text><text class="st1 st2 st3" transform="matrix(1 0 0 1 565.621 120.3763)">&quot;</text><text class="st1 st2 st3" transform="matrix(1 0 0 1 553.3923 94.426)">[</text><text class="st1 st2 st3" transform="matrix(1 0 0 1 552.9709 74.8769)">{</text><text class="st1 st2 st3" transform="matrix(1 0 0 1 598.7657 94.426)">]</text><text class="st1 st2 st3" transform="matrix(1 0 0 1 598.3443 74.7849)">}</text><text class="st1 st2 st3" transform="matrix(1 0 0 1 644.3574 96.8807)">\</text><text class="st1 st2 st3" transform="matrix(1 0 0 1 644.4941 74.8769)">|</text><text id="text-tab" class="st1 st2 st6" transform="matrix(1 0 0 1 23.3467 93.2342)">tab</text><text id="caps-lock" class="st1 st2 st6" transform="matrix(1 0 0 1 23.3467 137.7127)">caps lock</text><text id="text-shift-left" class="st1 st2 st6" transform="matrix(1 0 0 1 23.3467 181.0408)">shift</text><text id="text-shift-right" class="st1 st2 st6" transform="matrix(1 0 0 1 641.826 180.0408)">shift</text><text id="text-backspace" class="st1 st2 st6" transform="matrix(1 0 0 1 606.4653 51.1765)">backspace</text><text id="text-enter" class="st1 st2 st6" transform="matrix(1 0 0 1 636.3144 137.7128)">enter</text><text class="st1 st2 st6" transform="matrix(1 0 0 1 23.3467 232.465)">control</text><text id="text-option-left" class="st1 st2 st6" transform="matrix(1 0 0 1 129.2338 231.4646)">option</text><text id="text-space" class="st1 st2 st6" transform="matrix(1 0 0 1 199.7899 232.4646)">space</text><text id="text-option-right" class="st1 st2 st6" transform="matrix(1 0 0 1 483.8864 231.4646)">option</text></g></svg>